<svg width="50mm" height="10mm" viewBox="0 0 250 50" xmlns="http://www.w3.org/2000/svg"><path d="M231.77 37.64c-.844.106-2.235-.01-3.174-.263-1.165-.315-1.982-.811-2.697-1.638-.564-.653-1.224-1.757-1.467-2.454-.293-.84-.493-3.774-.594-8.714-.114-5.557-.05-7.571.255-7.938.224-.27.96-.49 1.636-.49.676 0 1.41.18 1.63.4.285.285.402 2.301.403 6.935.001 3.594.156 7.088.344 7.766.188.677.8 1.617 1.36 2.089.766.644 1.396.857 2.536.857 1.006 0 2.06-.297 3.135-.881.901-.49 1.994-1.45 2.468-2.165.835-1.262.85-1.396.85-7.578 0-4.602.116-6.451.43-6.881.324-.443.798-.562 1.922-.482l1.491.106.09 8.57c.073 7.09.174 8.64.584 8.981.298.247.496.987.496 1.852 0 1.15-.135 1.484-.674 1.655-.37.117-1.198.04-1.84-.172-.642-.212-1.317-.664-1.499-1.005-.182-.34-.332-1.005-.332-1.477 0-.471-.12-.857-.268-.857-.148 0-.77.516-1.381 1.147-.612.631-1.807 1.44-2.656 1.799-.849.358-2.22.736-3.047.839zm-112.916-.205c-2.146.102-2.869-.011-4.531-.712-1.088-.458-2.62-1.464-3.406-2.235-.786-.771-1.773-2.169-2.193-3.106-.6-1.338-.766-2.315-.772-4.545-.004-2.373.137-3.147.866-4.701.48-1.023 1.438-2.41 2.13-3.082.691-.671 1.953-1.56 2.804-1.976 1.032-.503 2.343-.796 3.944-.88 1.64-.086 2.927.05 4.071.43.92.305 2.351 1.073 3.179 1.705 1.038.792 1.837 1.824 2.574 3.32.797 1.619 1.079 2.66 1.108 4.095l.04 1.925-8.285.089c-7.137.077-8.312.161-8.485.61-.11.286-.035 1.075.17 1.752.203.68 1.01 1.847 1.8 2.605.787.755 1.942 1.543 2.567 1.75.625.209 1.527.378 2.005.377.478 0 1.449-.163 2.158-.36.708-.196 1.943-.961 2.743-1.7 1.401-1.29 1.5-1.326 2.64-.95.65.214 1.182.57 1.182.79 0 .219-.454.95-1.01 1.623-.554.674-1.85 1.636-2.877 2.139-1.412.69-2.492.944-4.422 1.036zm-.361-12.27c6.485 0 6.664-.019 6.664-.68 0-.376-.286-1.24-.635-1.922-.35-.682-.991-1.572-1.425-1.976-.434-.405-1.347-.97-2.028-1.254-.68-.284-1.882-.514-2.669-.51-.787.004-2.032.286-2.768.627-.735.34-1.762 1.072-2.282 1.626-.52.554-1.145 1.587-1.389 2.297-.244.71-.373 1.403-.288 1.541.085.14 3.154.252 6.82.252zm24.91 12.36c-1.252-.005-2.56-.246-3.395-.625-.747-.34-1.895-1.088-2.55-1.664-.656-.575-1.277-1.046-1.38-1.046-.103 0-.234.639-.29 1.42l-.103 1.42h-3.008V8.288l1.755-.1 1.754-.102v5.7c0 3.134.135 5.699.3 5.699.164 0 .793-.463 1.398-1.028.605-.565 1.686-1.326 2.402-1.692.885-.451 1.967-.664 3.371-.664 1.138 0 2.484.158 2.993.351.509.194 1.464.718 2.123 1.166.659.448 1.69 1.507 2.293 2.354.602.846 1.356 2.508 1.677 3.692.396 1.464.525 2.791.402 4.147-.1 1.097-.548 2.793-.997 3.77-.448.975-1.221 2.253-1.718 2.84-.496.587-1.822 1.527-2.947 2.089-1.619.809-2.47 1.02-4.08 1.015zm-1.01-3.016c.195.01 1.102-.207 2.014-.477.996-.296 2.072-.93 2.697-1.588.571-.602 1.313-1.622 1.647-2.265.386-.741.612-1.904.619-3.175.004-1.103-.205-2.532-.469-3.175-.263-.643-.788-1.599-1.166-2.123-.378-.524-1.396-1.314-2.263-1.754-.867-.441-2.07-.799-2.674-.795-.603.004-1.7.282-2.437.616-.737.335-1.837 1.176-2.445 1.868-.608.693-1.246 1.629-1.418 2.08-.171.451-.312 2.066-.312 3.59 0 2.322.122 2.948.752 3.874.414.608 1.137 1.39 1.607 1.738.47.348 1.448.844 2.173 1.102.724.258 1.478.476 1.674.484zm26.727 2.99c-.56-.02-1.583-.168-2.275-.33-.692-.164-1.895-.617-2.674-1.008-.778-.39-1.917-1.088-2.531-1.548-.614-.46-1.778-1.736-2.587-2.835-.846-1.15-1.755-2.92-2.142-4.172-.427-1.384-.67-3.106-.668-4.731 0-1.405.214-3.25.472-4.099.258-.849.767-2.127 1.132-2.84.364-.714 1.305-2.026 2.09-2.916.784-.89 1.966-1.957 2.624-2.371.659-.414 2.003-1.02 2.987-1.344 1.365-.452 2.515-.558 4.846-.448 2.445.115 3.393.318 4.735 1.008.922.475 2.389 1.624 3.258 2.553.87.93 1.581 1.912 1.581 2.183 0 .271-.437.804-.97 1.184-.534.38-1.16.692-1.389.692-.23 0-.937-.607-1.572-1.349-.634-.741-1.777-1.666-2.538-2.055-.83-.424-2.286-.772-3.63-.868-1.95-.14-2.487-.044-4.072.732-1.004.49-2.31 1.444-2.9 2.117-.592.674-1.43 1.997-1.861 2.94-.432.943-.88 2.623-.996 3.734-.128 1.22-.044 2.728.211 3.814.232.988.647 2.248.92 2.799.274.551 1.005 1.628 1.623 2.391.619.764 1.908 1.78 2.865 2.256 1.323.66 2.248.867 3.858.867 1.164 0 2.657-.225 3.317-.5.66-.277 1.407-.502 1.66-.502.321 0 .46.443.46 1.463 0 .805-.196 1.626-.436 1.826-.24.199-1.325.593-2.41.876-1.085.283-2.43.499-2.989.48zm23.882-.071c-1.65.078-2.85-.04-3.515-.341-.555-.254-1.482-1-2.06-1.658-.669-.761-1.191-1.844-1.435-2.973-.242-1.123-.345-4.415-.28-8.961l.105-7.186.96-.11c.527-.06 1.316-.02 1.754.09l.795.2v6.594c.002 3.723.161 7.165.367 7.905.2.72.789 1.736 1.309 2.256.807.807 1.213.945 2.771.945 1.506 0 2.11-.19 3.445-1.086.89-.597 1.957-1.688 2.371-2.423.71-1.257.754-1.719.76-7.735.004-5.522.077-6.425.534-6.6.29-.112.88-.203 1.31-.203.429 0 1.018.091 1.309.203.462.177.528 1.238.528 8.458 0 6.742.09 8.375.49 8.905.27.357.496 1.277.502 2.046.01 1.11-.127 1.442-.658 1.61-.367.117-1.006.11-1.42-.016a4.309 4.309 0 01-1.33-.737c-.318-.279-.673-1.013-.79-1.631-.115-.618-.306-1.12-.424-1.115-.117.004-.664.471-1.216 1.036-.551.564-1.604 1.337-2.34 1.717-.9.465-2.153.73-3.843.81zm-111.904-.23c-.721 0-1.458-.188-1.637-.418-.179-.23-2.85-6.488-5.934-13.906-4.48-10.772-5.517-13.547-5.147-13.781.255-.161.914-.293 1.465-.293.552 0 1.224.14 1.495.31.27.172 2.526 5.387 5.013 11.591s4.672 11.323 4.856 11.377c.183.054 2.668-5.052 5.521-11.345L91.917 9.29l1.58-.102c.87-.056 1.586.02 1.591.167.004.148-1.07 2.78-2.39 5.851l-2.4 5.582 1.735 4.214 1.736 4.213-.745 1.491c-.41.82-.897 1.44-1.083 1.378-.185-.062-1.022-1.662-1.859-3.556-.836-1.894-1.664-3.463-1.84-3.487-.174-.024-1.328 2.288-2.562 5.137-1.234 2.849-2.475 5.594-2.757 6.1-.424.758-.742.918-1.825.918zm14.392-.065c-1.007.073-1.475-.04-1.607-.384-.103-.268.177-1.216.623-2.108.445-.892 2.89-6.866 5.433-13.275 2.543-6.41 4.832-11.861 5.086-12.115.254-.254.94-.46 1.524-.457.584.001 1.278.142 1.541.309.392.247-.458 2.552-4.65 12.61-2.822 6.77-5.445 12.986-5.83 13.813-.651 1.4-.797 1.511-2.12 1.607zm84.132-.004c-.65.055-1.29-.009-1.42-.14-.132-.13-.24-2.457-.24-5.168 0-2.712-.09-5.168-.202-5.459-.162-.423-.755-.529-2.972-.529s-2.81-.105-2.972-.528c-.112-.291-.203-.731-.203-.979 0-.247.236-.686.525-.975.416-.416 1.306-.524 4.261-.52 2.055 0 3.927.126 4.161.274.326.207.404 1.859.334 7.097l-.09 6.828-1.182.099zm32.01.001c-1.085.07-1.645-.04-1.76-.338-.093-.242-.13-4.95-.08-10.462l.088-10.023 1.324-.108c.967-.079 1.44.05 1.755.482.237.324.43 1.181.43 1.905V19.9l1.525-1.405c.838-.772 2.036-1.619 2.663-1.88.626-.262 1.588-.476 2.137-.476.87 0 1.025.145 1.21 1.134.12.636.048 1.444-.163 1.839-.207.386-.653.703-.991.703-.338 0-1.27.231-2.072.514-.802.283-1.887.923-2.41 1.42-.525.5-1.128 1.208-1.342 1.575-.242.416-.453 3.135-.556 7.186l-.167 6.517-1.591.102zM85.046 16.809c-.205 0-1.115-1.585-2.022-3.523-.907-1.938-1.65-3.676-1.65-3.862 0-.195.672-.296 1.588-.237 1.563.1 1.602.13 2.487 1.94.495 1.011.909 2.182.92 2.601.01.42-.2 1.284-.465 1.922-.267.637-.653 1.159-.858 1.159zM30.201 46.396c-2.117.074-2.804-.011-2.94-.368-.098-.255-.134-1.501-.078-2.768.098-2.272.114-2.307 1.102-2.476 1.003-.172 1.003-.172 1.1-2.76.092-2.428.05-2.609-.668-2.909-.421-.176-3.172-.867-6.113-1.536-2.942-.669-5.46-1.285-5.599-1.37-.137-.085-.25-1.708-.25-3.608 0-2.84-.094-3.49-.529-3.656-.29-.112-1.163-.203-1.938-.203-.776 0-1.59.18-1.811.4-.22.221-.401.754-.401 1.184 0 .765-.062.78-2.757.685l-2.758-.097v-5.347h5.305l.286 1.101.285 1.102 2.075-.099 2.076-.099.166-3.008.167-3.008 6.183-2.032 6.183-2.033V8.205l-1.002-.174-1.003-.174v-5.34h5.682v5.34l-1.003.174-1.003.174v5.286l6.183 2.033 6.183 2.032.167 3.008.167 3.008 2.075.1 2.076.098.285-1.102.285-1.101h5.305v5.347l-2.757.097c-2.696.095-2.757.08-2.757-.685 0-.43-.18-.963-.401-1.183-.221-.221-1.036-.401-1.811-.401-.775 0-1.648.09-1.939.203-.434.167-.528.815-.528 3.656 0 1.9-.12 3.528-.267 3.619-.146.09-2.665.702-5.598 1.36-2.932.658-5.676 1.344-6.097 1.525-.718.31-.76.494-.669 2.919.098 2.587.098 2.588 1.1 2.76l1.003.174v5.34zm.077-1l1.349-.1.101-1.576c.094-1.45.032-1.594-.752-1.791-.469-.118-1.229-.12-1.688-.004-.73.183-.836.392-.836 1.651 0 .793.107 1.55.238 1.68.132.132.846.195 1.588.14zm-1.506-11.74c.267-.032.575-.436.683-.895.108-.458.416-.834.683-.834.268 0 .536.348.596.773.06.425.286.836.501.913.216.077 1.937-.211 3.826-.642 1.89-.43 3.53-.879 3.649-.996.117-.118.143-.285.057-.371-.087-.087-2.067-.6-4.4-1.14l-4.244-.981-4.243.982c-2.334.54-4.314 1.052-4.4 1.139-.087.086-.06.255.06.374.12.12 1.686.56 3.481.978 1.795.419 3.483.734 3.75.7zm-9.979-2.898c.394 0 2.69-.46 5.104-1.02 2.413-.56 4.651-1.097 4.973-1.192.531-.157.585-.779.585-6.835 0-6.122-.048-6.661-.585-6.659-.322.001-2.841.721-5.598 1.6l-5.013 1.597-.091 6.254c-.09 6.2-.085 6.255.625 6.255zm1.908-2.696c-.31.011-.651-.118-.757-.29-.106-.17-.002-.43.23-.577.234-.147 1.702-.682 3.265-1.189 1.562-.507 3.116-.924 3.453-.926.34 0 .553.182.479.414-.074.23-1.477.897-3.12 1.482-1.641.586-3.239 1.074-3.55 1.086zm-.107-2.652c-.274 0-.497-.205-.497-.456 0-.285 1.244-.851 3.303-1.504 1.818-.576 3.472-1.048 3.677-1.048.205 0 .372.22.372.486 0 .32-1.088.834-3.179 1.504-1.748.56-3.402 1.018-3.676 1.018zm.116-2.48c-.307.092-.65.02-.763-.165-.113-.183.137-.553.557-.82.42-.269 2.035-.875 3.591-1.347 1.858-.564 2.943-.746 3.159-.53.207.207.212.44.01.63-.174.167-1.595.699-3.158 1.183-1.562.484-3.091.956-3.397 1.049zm-.33-2.533c-.134 0-.326-.133-.427-.296-.1-.163.004-.45.23-.636.229-.186 1.844-.787 3.59-1.335 1.746-.548 3.305-.877 3.463-.73.16.145.19.426.069.622s-1.674.81-3.45 1.365c-1.777.556-3.34 1.01-3.474 1.01zm20.863 10.336l.926.023-.09-6.254-.091-6.254-5.014-1.598c-2.757-.878-5.276-1.598-5.598-1.6-.537 0-.584.538-.584 6.676 0 6.648.004 6.679.752 6.864.413.103 2.556.62 4.762 1.151 2.206.531 4.427.977 4.937.99zM9.568 26.01c1.289-.095 1.342-.145 1.443-1.375.058-.702-.073-1.492-.292-1.755-.218-.262-.818-.478-1.334-.478-.516 0-1.174.237-1.463.526-.29.289-.525.935-.525 1.437 0 .501.187 1.099.416 1.328.233.234 1.003.373 1.754.317zm41.265.069c.668 0 1.395-.18 1.615-.401.221-.221.401-.812.401-1.313 0-.502-.236-1.149-.525-1.437-.289-.29-.935-.526-1.437-.526-.501 0-1.092.18-1.313.401-.22.221-.4.948-.4 1.616 0 .668.1 1.314.222 1.437.122.122.769.223 1.437.223zm-20.71-19.06c.46 0 1.033-.126 1.275-.28.284-.18.402-.798.334-1.749l-.105-1.47h-3.008l-.105 1.47c-.068.95.05 1.57.334 1.75.242.153.815.278 1.275.278z" fill="#49a2e8"/></svg>