<?xml version="1.0" encoding="UTF-8" standalone="no"?>
<!-- Created with Inkscape (http://www.inkscape.org/) -->

<svg
   width="50mm"
   height="10mm"
   viewBox="0 0 250 50"
   version="1.1"
   id="svg203"
   xml:space="preserve"
   inkscape:version="1.2 (dc2aeda, 2022-05-15)"
   sodipodi:docname="webguru_full.svg"
   inkscape:export-filename="webguru_logo_text.png"
   inkscape:export-xdpi="105.80474"
   inkscape:export-ydpi="105.80474"
   xmlns:inkscape="http://www.inkscape.org/namespaces/inkscape"
   xmlns:sodipodi="http://sodipodi.sourceforge.net/DTD/sodipodi-0.dtd"
   xmlns="http://www.w3.org/2000/svg"
   xmlns:svg="http://www.w3.org/2000/svg"><sodipodi:namedview
     id="namedview205"
     pagecolor="#ffffff"
     bordercolor="#000000"
     borderopacity="0.25"
     inkscape:showpageshadow="2"
     inkscape:pageopacity="0.0"
     inkscape:pagecheckerboard="0"
     inkscape:deskcolor="#d1d1d1"
     inkscape:document-units="mm"
     showgrid="false"
     inkscape:zoom="0.55337834"
     inkscape:cx="46.080589"
     inkscape:cy="58.730163"
     inkscape:window-width="2560"
     inkscape:window-height="1027"
     inkscape:window-x="0"
     inkscape:window-y="25"
     inkscape:window-maximized="0"
     inkscape:current-layer="g681" /><defs
     id="defs200" /><g
     inkscape:label="Layer 1"
     inkscape:groupmode="layer"
     id="layer1"><g
       id="g681"
       transform="translate(-80.056606,-120.73694)"><path
         style="fill:#49a2e8;stroke-width:0.334212"
         d="m 311.82751,158.37772 c -0.84526,0.10539 -2.23588,-0.0111 -3.17499,-0.26407 -1.16532,-0.31503 -1.98155,-0.81094 -2.6968,-1.63805 -0.56417,-0.65241 -1.22452,-1.75657 -1.46742,-2.4537 -0.29289,-0.84088 -0.49298,-3.77432 -0.59416,-8.71407 -0.11367,-5.55717 -0.049,-7.57109 0.255,-7.93752 0.22422,-0.27002 0.9606,-0.49103 1.63659,-0.49103 0.67598,0 1.40956,0.18043 1.63013,0.40107 0.28462,0.2846 0.40161,2.30084 0.40291,6.93488 9.5e-4,3.59362 0.15586,7.08814 0.34384,7.76569 0.18816,0.67748 0.80044,1.61744 1.36065,2.08878 0.76574,0.64437 1.39486,0.85702 2.53514,0.85702 1.00633,0 2.06111,-0.29647 3.13487,-0.88079 0.90148,-0.49062 1.99478,-1.44966 2.46827,-2.16517 0.83494,-1.26174 0.85,-1.39582 0.85,-7.57775 0,-4.60179 0.11564,-6.45137 0.42991,-6.88125 0.32366,-0.44267 0.79834,-0.56162 1.92168,-0.48159 l 1.49184,0.10626 0.0892,8.56965 c 0.0738,7.08948 0.17488,8.64074 0.58482,8.98111 0.29803,0.24711 0.49577,0.98637 0.49577,1.85192 0,1.15072 -0.13556,1.48354 -0.67366,1.65433 -0.37066,0.11762 -1.19886,0.0407 -1.84074,-0.17129 -0.6419,-0.21187 -1.3163,-0.66404 -1.49872,-1.00486 -0.18243,-0.34104 -0.33158,-1.00555 -0.33158,-1.47719 0,-0.47161 -0.12083,-0.85752 -0.26882,-0.85752 -0.14759,0 -0.76914,0.5164 -1.38085,1.14755 -0.61174,0.63114 -1.80681,1.44056 -2.65574,1.7987 -0.84888,0.35803 -2.22025,0.73572 -3.04742,0.83902 z m -112.9172,-0.20612 c -2.14562,0.10269 -2.86847,-0.0111 -4.53077,-0.71135 -1.0878,-0.45852 -2.62059,-1.46442 -3.40626,-2.23546 -0.78559,-0.77105 -1.7725,-2.16868 -2.19305,-3.10596 -0.60037,-1.33793 -0.7661,-2.31447 -0.7714,-4.54487 -0.004,-2.37331 0.137,-3.14694 0.86578,-4.70122 0.47988,-1.02321 1.43832,-2.4099 2.12985,-3.0815 0.69152,-0.67162 1.95325,-1.5607 2.80379,-1.97581 1.0324,-0.50381 2.3436,-0.79659 3.94428,-0.88076 1.63924,-0.0861 2.92712,0.0497 4.07128,0.42988 0.92045,0.30552 2.3509,1.07305 3.17877,1.70518 1.03774,0.79238 1.83728,1.82371 2.57402,3.32033 0.79672,1.61838 1.07866,2.66064 1.10766,4.09515 l 0.0395,1.92427 -8.28446,0.0892 c -7.13716,0.077 -8.31213,0.16142 -8.48425,0.60998 -0.10985,0.28618 -0.0356,1.07489 0.16931,1.75237 0.20367,0.67991 1.01022,1.84697 1.79999,2.60478 0.78703,0.75507 1.94215,1.543 2.567,1.75096 0.62482,0.20809 1.52719,0.37737 2.00525,0.37618 0.47806,-9.5e-4 1.44896,-0.16268 2.15753,-0.35959 0.70855,-0.1966 1.94334,-0.96156 2.74392,-1.69952 1.40075,-1.2912 1.50031,-1.32706 2.63873,-0.95136 0.65063,0.21474 1.18303,0.57011 1.18303,0.78969 0,0.21941 -0.45426,0.95038 -1.00947,1.62389 -0.55519,0.6736 -1.85029,1.63604 -2.87799,2.13886 -1.41223,0.69091 -2.49203,0.94405 -4.42151,1.03642 z m -0.3608,-12.26872 c 6.48508,0 6.66453,-0.0198 6.66453,-0.68173 0,-0.37502 -0.28617,-1.23974 -0.63591,-1.9217 -0.34974,-0.682 -0.99096,-1.57117 -1.42496,-1.97599 -0.434,-0.40484 -1.34615,-0.9688 -2.02709,-1.25329 -0.68088,-0.28463 -1.88199,-0.514 -2.66908,-0.50998 -0.78714,0.004 -2.03274,0.28579 -2.76798,0.62632 -0.73528,0.34025 -1.76234,1.07214 -2.28238,1.62601 -0.52003,0.55392 -1.14508,1.58765 -1.38904,2.29721 -0.24394,0.70959 -0.37343,1.40329 -0.28814,1.54163 0.0856,0.13863 3.1545,0.25146 6.81996,0.25146 z m 24.90925,12.35851 c -1.25141,-0.004 -2.55881,-0.24512 -3.3942,-0.62447 -0.74728,-0.33948 -1.8951,-1.0881 -2.55067,-1.66371 -0.65561,-0.57564 -1.27631,-1.0466 -1.37933,-1.0466 -0.10293,0 -0.23371,0.63918 -0.29014,1.42037 l -0.10269,1.42045 h -1.50394 -1.50396 v -14.37112 -14.3711 l 1.75461,-0.10096 1.75459,-0.10095 v 5.69907 c 0,3.13448 0.13467,5.69907 0.29881,5.69907 0.16429,0 0.7938,-0.46233 1.3987,-1.02745 0.60488,-0.56507 1.686,-1.32642 2.40244,-1.69191 0.88469,-0.45132 1.96623,-0.66455 3.37072,-0.66455 1.13743,0 2.48424,0.15835 2.9929,0.35172 0.50867,0.19348 1.46396,0.71795 2.1229,1.16567 0.65894,0.44782 1.69064,1.50694 2.29263,2.3537 0.60207,0.84674 1.35684,2.50835 1.67737,3.69242 0.39632,1.46411 0.52487,2.79092 0.40189,4.14734 -0.0995,1.09698 -0.54785,2.7929 -0.99645,3.76867 -0.44857,0.97585 -1.22163,2.25428 -1.7179,2.84103 -0.4963,0.58675 -1.82269,1.52669 -2.94764,2.08878 -1.61879,0.80897 -2.46962,1.02053 -4.08068,1.01473 z m -1.00989,-3.01524 c 0.19615,0.009 1.10286,-0.20677 2.01438,-0.47748 0.99613,-0.29567 2.07201,-0.92912 2.69691,-1.5875 0.57183,-0.60247 1.31338,-1.62176 1.64793,-2.2651 0.38526,-0.74115 0.612,-1.90445 0.61844,-3.175 0.004,-1.10288 -0.20522,-2.53164 -0.46883,-3.17504 -0.26328,-0.64334 -0.7881,-1.59861 -1.1659,-2.12281 -0.37776,-0.52422 -1.39626,-1.31379 -2.26328,-1.75462 -0.86704,-0.44082 -2.0702,-0.79819 -2.67371,-0.79417 -0.60351,0.004 -1.70014,0.28106 -2.437,0.61596 -0.7369,0.33473 -1.8373,1.17534 -2.44542,1.86796 -0.60817,0.69262 -1.24605,1.62839 -1.41757,2.07951 -0.17129,0.45104 -0.31184,2.06647 -0.31184,3.58976 0,2.32201 0.12157,2.94818 0.75197,3.87446 0.41363,0.6077 1.1367,1.38972 1.60687,1.7378 0.47018,0.34818 1.44774,0.84412 2.17239,1.10227 0.72465,0.25816 1.47824,0.47593 1.67466,0.484 z m 26.72736,2.98898 c -0.55878,-0.02 -1.58232,-0.16699 -2.27449,-0.33 -0.69213,-0.16303 -1.89529,-0.61634 -2.67368,-1.00724 -0.77835,-0.39079 -1.91755,-1.08755 -2.53154,-1.54808 -0.61397,-0.46055 -1.77789,-1.73611 -2.58656,-2.83453 -0.84613,-1.14942 -1.75551,-2.92079 -2.14223,-4.17284 -0.42733,-1.38351 -0.67068,-3.10597 -0.66836,-4.73064 9.5e-4,-1.4052 0.21429,-3.24953 0.47207,-4.09848 0.25779,-0.84896 0.76698,-2.12733 1.13184,-2.84082 0.36474,-0.71347 1.30537,-2.02552 2.09011,-2.91564 0.7847,-0.89017 1.96573,-1.95711 2.62441,-2.37115 0.65873,-0.41393 2.00283,-1.01888 2.98689,-1.34426 1.36448,-0.45115 2.51489,-0.55732 4.84607,-0.44733 2.44437,0.11527 3.393,0.3174 4.73457,1.00763 0.92269,0.47486 2.38906,1.62396 3.25855,2.55348 0.86948,0.92957 1.58087,1.91187 1.58087,2.18297 0,0.27118 -0.4368,0.80388 -0.97068,1.18405 -0.53386,0.38015 -1.1586,0.69119 -1.38835,0.69119 -0.22973,0 -0.93702,-0.60679 -1.5718,-1.34838 -0.63475,-0.74159 -1.7772,-1.66648 -2.53863,-2.05536 -0.82902,-0.4233 -2.28556,-0.77162 -3.63029,-0.86814 -1.94945,-0.1397 -2.48668,-0.0434 -4.07125,0.73189 -1.00398,0.49121 -2.30929,1.44419 -2.90069,2.11771 -0.5914,0.6736 -1.42855,1.99643 -1.86042,2.93971 -0.43184,0.94325 -0.8801,2.62339 -0.99615,3.73368 -0.12749,1.22116 -0.0443,2.72821 0.21121,3.81469 0.2321,0.98784 0.64647,2.24725 0.9204,2.79871 0.27395,0.55143 1.00413,1.62756 1.62266,2.39134 0.61847,0.76383 1.90764,1.77898 2.86481,2.25593 1.32265,0.65914 2.2484,0.8672 3.85773,0.8672 1.16464,0 2.65742,-0.22539 3.31733,-0.5013 0.6599,-0.27594 1.40701,-0.50135 1.66032,-0.50135 0.32093,0 0.46052,0.44302 0.46052,1.46308 0,0.80468 -0.19659,1.62619 -0.43696,1.82562 -0.24038,0.19925 -1.32465,0.59386 -2.40966,0.87643 -1.08508,0.28265 -2.42998,0.49875 -2.98877,0.48028 z m 23.88277,-0.0706 c -1.65105,0.0786 -2.8509,-0.0395 -3.51544,-0.34105 -0.55485,-0.25305 -1.48193,-0.99893 -2.06014,-1.65749 -0.6684,-0.76127 -1.19088,-1.84404 -1.43451,-2.97299 -0.24238,-1.12331 -0.34503,-4.41542 -0.27949,-8.9612 l 0.10379,-7.18559 0.95947,-0.10971 c 0.5277,-0.0605 1.3173,-0.02 1.75463,0.09 l 0.79512,0.19925 9.5e-4,6.59433 c 9.4e-4,3.72277 0.16034,7.16497 0.36591,7.90482 0.20012,0.72075 0.78928,1.73595 1.30926,2.25595 0.80704,0.80702 1.21272,0.94538 2.77154,0.94538 1.50549,0 2.11017,-0.1906 3.44408,-1.08619 0.88988,-0.59741 1.95715,-1.68775 2.37176,-2.42302 0.70875,-1.25707 0.75411,-1.7188 0.75926,-7.73466 0.004,-5.52234 0.0778,-6.42558 0.53411,-6.60071 0.29054,-0.11181 0.87992,-0.20278 1.3094,-0.20278 0.42948,0 1.01874,0.0912 1.30953,0.20278 0.46229,0.17758 0.52865,1.23878 0.52865,8.45855 0,6.74149 0.0901,8.37462 0.49066,8.90441 0.26999,0.35685 0.49548,1.27777 0.50133,2.0466 0.009,1.1097 -0.12712,1.44163 -0.65779,1.61001 -0.3675,0.11688 -1.00683,0.10898 -1.4204,-0.0162 -0.4136,-0.12604 -1.01223,-0.45762 -1.33029,-0.73688 -0.31816,-0.27905 -0.67325,-1.01338 -0.78917,-1.6315 -0.11601,-0.61812 -0.30709,-1.11968 -0.42431,-1.11456 -0.11725,0.004 -0.66465,0.47101 -1.2161,1.03538 -0.55147,0.56435 -1.60423,1.33704 -2.3395,1.71714 -0.90117,0.46584 -2.15376,0.7299 -3.84342,0.81024 z M 161.15457,157.9344 c -0.72128,0 -1.45781,-0.18796 -1.63666,-0.41776 -0.17883,-0.22974 -2.84946,-6.48736 -5.93468,-13.90577 -4.47984,-10.77172 -5.51629,-13.54699 -5.14667,-13.78113 0.25455,-0.16088 0.914,-0.29327 1.46545,-0.29327 0.55146,0 1.22397,0.14023 1.49448,0.31105 0.27051,0.17094 2.52644,5.38684 5.01317,11.59053 2.48675,6.2037 4.67174,11.32327 4.85554,11.37676 0.18374,0.0538 2.66852,-5.05175 5.52151,-11.345 l 5.18726,-11.44225 1.5805,-0.10183 c 0.86928,-0.056 1.58502,0.02 1.59053,0.16699 0.004,0.14812 -1.07028,2.78098 -2.39061,5.85117 l -2.40062,5.58214 1.73566,4.21348 1.7357,4.21343 -0.74462,1.49096 c -0.40954,0.82003 -0.89665,1.44028 -1.08245,1.37835 -0.18574,-0.0619 -1.02235,-1.66224 -1.85901,-3.55623 -0.83665,-1.89404 -1.66451,-3.46323 -1.83971,-3.48712 -0.17507,-0.0237 -1.32843,2.28766 -2.56278,5.13682 -1.23432,2.84913 -2.47515,5.59385 -2.75737,6.09937 -0.42393,0.75932 -0.74111,0.91904 -1.82462,0.91904 z m 14.39215,-0.0644 c -1.00734,0.073 -1.47481,-0.0395 -1.60729,-0.38407 -0.10269,-0.26764 0.17757,-1.21646 0.62304,-2.10818 0.44543,-0.89176 2.89053,-6.86536 5.43351,-13.27471 2.54301,-6.4093 4.83146,-11.86115 5.08546,-12.11516 0.25403,-0.25384 0.93989,-0.4595 1.52419,-0.4567 0.58424,9.5e-4 1.27787,0.14166 1.54142,0.30829 0.39157,0.24788 -0.45854,2.55287 -4.65074,12.61137 -2.8214,6.76952 -5.44465,12.98498 -5.82945,13.81213 -0.6514,1.40031 -0.79754,1.51107 -2.12014,1.60686 z m 84.13187,-0.004 c -0.64991,0.0549 -1.2891,-0.009 -1.42039,-0.13932 -0.13143,-0.13144 -0.23883,-2.45726 -0.23883,-5.16884 0,-2.71158 -0.0912,-5.16803 -0.20279,-5.45881 -0.16232,-0.42317 -0.75524,-0.52866 -2.97215,-0.52866 -2.21689,0 -2.80974,-0.1054 -2.97214,-0.52863 -0.11182,-0.29093 -0.20277,-0.73123 -0.20277,-0.97875 0,-0.24748 0.23643,-0.68643 0.52518,-0.97533 0.4155,-0.41551 1.30548,-0.52409 4.2612,-0.52005 2.05481,9.4e-4 3.92717,0.1264 4.16086,0.27473 0.32607,0.20679 0.40376,1.85826 0.33434,7.09687 l -0.0908,6.82724 -1.18166,0.0995 z m 32.0093,9.5e-4 c -1.08422,0.0695 -1.64469,-0.0394 -1.7597,-0.33792 -0.0928,-0.24197 -0.12909,-4.95005 -0.0801,-10.46252 l 0.0889,-10.02283 1.32352,-0.10774 c 0.96711,-0.079 1.43961,0.0509 1.7546,0.48162 0.23725,0.32408 0.4311,1.18157 0.4311,1.90511 v 1.31552 l 1.52417,-1.40491 c 0.83826,-0.77265 2.03657,-1.61904 2.66293,-1.88072 0.62638,-0.2617 1.58805,-0.47582 2.13703,-0.47582 0.87032,0 1.0255,0.14525 1.2111,1.13455 0.11947,0.63571 0.0474,1.44392 -0.16376,1.83818 -0.20721,0.38684 -0.65312,0.70357 -0.99118,0.70357 -0.33828,0 -1.27064,0.23134 -2.07235,0.51432 -0.80176,0.28302 -1.88633,0.92208 -2.41027,1.42042 -0.52392,0.49837 -1.12764,1.20688 -1.34159,1.5745 -0.24198,0.4155 -0.4522,3.13457 -0.55611,7.18557 l -0.16697,6.51713 -1.59091,0.10182 z M 165.10392,137.54579 c -0.20524,0 -1.11525,-1.58534 -2.02234,-3.523 -0.9071,-1.93769 -1.64927,-3.67544 -1.64927,-3.86176 0,-0.19549 0.67091,-0.29566 1.5875,-0.23683 1.56266,0.10033 1.60162,0.13052 2.48714,1.94001 0.49479,1.01102 0.90839,2.1814 0.9191,2.60089 0.0111,0.41949 -0.19859,1.28425 -0.46481,1.9217 -0.26633,0.63746 -0.65215,1.15899 -0.85732,1.15899 z m -54.8459,29.58685 c -2.11772,0.0746 -2.80409,-0.0111 -2.94075,-0.36749 -0.0978,-0.25541 -0.13359,-1.50141 -0.0781,-2.76869 0.0988,-2.27107 0.11437,-2.30662 1.10257,-2.47575 1.0024,-0.17184 1.00269,-0.17202 1.10026,-2.76018 0.0917,-2.42716 0.0497,-2.6085 -0.66842,-2.90855 -0.4213,-0.17596 -3.17233,-0.86719 -6.11343,-1.53605 -2.941066,-0.6688 -5.460176,-1.28532 -5.598056,-1.37001 -0.13771,-0.0848 -0.25065,-1.70818 -0.25065,-3.60777 0,-2.84103 -0.0939,-3.48971 -0.52862,-3.65656 -0.29092,-0.11181 -1.16306,-0.20302 -1.93847,-0.20302 -0.77538,0 -1.590233,0.18044 -1.81083,0.40108 -0.220723,0.22072 -0.401029,0.75306 -0.401029,1.18327 0,0.76476 -0.06159,0.78004 -2.757264,0.68514 l -2.757246,-0.0971 v -2.67372 -2.67367 h 2.652442 2.652442 l 0.285397,1.10179 0.285397,1.10178 2.075221,-0.099 2.07524,-0.099 0.16698,-3.0079 0.16698,-3.0079 6.182886,-2.03278 6.18291,-2.03277 v -2.64293 -2.64288 l -1.00262,-0.17382 -1.00264,-0.17379 v -2.6704 -2.6704 h 2.84082 2.8408 v 2.6704 2.6704 l -1.00265,0.17379 -1.00262,0.17382 v 2.64288 2.64293 l 6.1829,2.03277 6.18292,2.03278 0.16699,3.0079 0.16697,3.0079 2.07521,0.099 2.07522,0.099 0.2854,-1.10178 0.28542,-1.10179 h 2.65242 2.65244 v 2.67367 2.67372 l -2.75723,0.0971 c -2.69581,0.0947 -2.75725,0.0797 -2.75725,-0.68514 0,-0.43021 -0.18043,-0.96271 -0.40106,-1.18327 -0.22072,-0.22074 -1.03544,-0.40108 -1.81083,-0.40108 -0.77538,0 -1.64767,0.0912 -1.93842,0.20302 -0.43489,0.16698 -0.52865,0.81553 -0.52865,3.65656 0,1.89959 -0.11994,3.5279 -0.26644,3.61854 -0.14634,0.0908 -2.66572,0.70272 -5.59802,1.36022 -2.93231,0.65754 -5.67621,1.3439 -6.09751,1.52528 -0.71762,0.30909 -0.75988,0.4935 -0.66842,2.91834 0.0973,2.58766 0.0979,2.58861 1.10026,2.76129 l 1.00263,0.17291 v 2.67041 2.6704 z m 0.0766,-1.00054 1.34899,-0.099 0.10145,-1.57664 c 0.0932,-1.44887 0.0316,-1.594 -0.75196,-1.79084 -0.46937,-0.11799 -1.22939,-0.11996 -1.68896,-0.004 -0.72971,0.18309 -0.83548,0.39236 -0.83548,1.6516 0,0.79304 0.10737,1.5492 0.2384,1.68041 0.13108,0.13107 0.84562,0.19393 1.58753,0.13951 z m -1.50647,-11.73919 c 0.26764,-0.0316 0.57525,-0.43619 0.68349,-0.89476 0.10829,-0.45855 0.41565,-0.83375 0.68309,-0.83375 0.26764,0 0.5355,0.34736 0.59572,0.77243 0.0605,0.42479 0.28577,0.83576 0.5013,0.91325 0.21541,0.0773 1.93726,-0.21118 3.82611,-0.64173 1.88884,-0.43042 3.53062,-0.87903 3.64844,-0.99684 0.11761,-0.11762 0.14364,-0.285 0.0573,-0.37104 -0.0865,-0.0864 -2.06656,-0.5989 -4.40046,-1.13889 l -4.24343,-0.98188 -4.24344,0.98188 c -2.33392,0.54003 -4.31412,1.05253 -4.40047,1.13889 -0.0865,0.0865 -0.0591,0.25498 0.0605,0.3746 0.11958,0.11958 1.68624,0.55987 3.48137,0.97828 1.7951,0.41847 3.48284,0.73335 3.7505,0.69984 z m -9.978506,-2.89827 c 0.39393,0 2.690776,-0.45879 5.104066,-1.01948 2.41335,-0.5607 4.651,-1.09724 4.97269,-1.19225 0.53169,-0.15729 0.58489,-0.77866 0.58489,-6.8345 0,-6.12261 -0.0474,-6.66152 -0.58489,-6.65925 -0.3217,9.5e-4 -2.84081,0.72114 -5.59807,1.59954 l -5.013156,1.59702 -0.0909,6.25446 c -0.09,6.19927 -0.0846,6.25446 0.62538,6.25446 z m 1.908266,-2.69544 c -0.31064,0.0111 -0.65168,-0.11848 -0.7574,-0.28934 -0.105756,-0.17093 -0.002,-0.43116 0.2309,-0.57782 0.2329,-0.1467 1.70156,-0.68164 3.26402,-1.1888 1.56243,-0.50716 3.11649,-0.92391 3.45353,-0.92615 0.33988,-9.5e-4 0.55302,0.182 0.47862,0.41375 -0.0738,0.22973 -1.47742,0.89676 -3.11931,1.48224 -1.64185,0.58542 -3.23952,1.07424 -3.55039,1.08616 z m -0.10737,-2.65194 c -0.27355,0 -0.49732,-0.20567 -0.49732,-0.45659 0,-0.2846 1.24479,-0.85122 3.30387,-1.50395 1.81718,-0.57605 3.47153,-1.04736 3.67638,-1.04736 0.20478,0 0.37263,0.21873 0.37263,0.4856 0,0.31936 -1.08893,0.83444 -3.17905,1.50395 -1.74845,0.5601 -3.40279,1.01835 -3.67631,1.01835 z m 0.11563,-2.48053 c -0.30632,0.0923 -0.64937,0.02 -0.76263,-0.165 -0.113296,-0.18308 0.13718,-0.5524 0.55674,-0.82039 0.41945,-0.26804 2.03575,-0.87391 3.59173,-1.34647 1.85741,-0.56417 2.94219,-0.74624 3.1583,-0.53013 0.20767,0.20767 0.21187,0.44062 0.0107,0.6311 -0.17451,0.16627 -1.59588,0.69801 -3.1583,1.18223 -1.56245,0.48417 -3.09137,0.95601 -3.39754,1.04854 z m -0.32921,-2.53264 c -0.13412,0 -0.32685,-0.13358 -0.42733,-0.29643 -0.100716,-0.16305 0.004,-0.44892 0.2309,-0.63544 0.22776,-0.18618 1.84285,-0.78741 3.58909,-1.33543 1.7463,-0.54799 3.3048,-0.87674 3.4634,-0.73053 0.15873,0.14616 0.18952,0.42618 0.0684,0.62218 -0.1212,0.19615 -1.67369,0.81068 -3.45009,1.36594 -1.77643,0.55529 -3.33976,1.00964 -3.4741,1.00964 z m 20.8626,10.33556 0.92649,0.0237 -0.0909,-6.25447 -0.0909,-6.25441 -5.01317,-1.59709 c -2.75724,-0.87837 -5.27639,-1.59813 -5.59806,-1.59952 -0.53759,-9.5e-4 -0.58489,0.5374 -0.58489,6.67543 0,6.64722 0.004,6.67868 0.75199,6.86401 0.41361,0.10232 2.5567,0.62036 4.76251,1.1511 2.20578,0.5307 4.42747,0.97619 4.93698,0.98991 z m -31.675412,-4.7223 c 1.289483,-0.0952 1.342182,-0.14526 1.443466,-1.37539 0.05764,-0.70216 -0.07343,-1.49172 -0.291698,-1.75459 -0.218299,-0.26291 -0.818737,-0.47801 -1.334553,-0.47801 -0.515833,0 -1.174176,0.23645 -1.463039,0.52519 -0.288951,0.28894 -0.525187,0.93555 -0.525187,1.43709 0,0.50156 0.187075,1.09923 0.416255,1.32818 0.233702,0.23368 1.003046,0.37303 1.754611,0.31736 z m 41.265472,0.0683 c 0.66786,0 1.39479,-0.18044 1.61537,-0.40105 0.22073,-0.22073 0.40107,-0.81143 0.40107,-1.31299 0,-0.50156 -0.23648,-1.14825 -0.5252,-1.43708 -0.28893,-0.28895 -0.93554,-0.52518 -1.4371,-0.52518 -0.50156,0 -1.0924,0.18042 -1.31299,0.40102 -0.22073,0.22074 -0.40103,0.94752 -0.40103,1.61537 0,0.66787 0.10036,1.31456 0.22263,1.43711 0.12245,0.12243 0.76925,0.22264 1.4371,0.22264 z m -20.70996,-19.06032 c 0.45955,0 1.03327,-0.12551 1.27497,-0.27868 0.28382,-0.18 0.40223,-0.79899 0.33434,-1.74948 l -0.10539,-1.47083 h -1.50396 -1.50396 l -0.1054,1.47083 c -0.0681,0.95049 0.0501,1.56939 0.33437,1.74948 0.24158,0.15316 0.81539,0.27868 1.27495,0.27868 z"
         id="path683"
         sodipodi:nodetypes="ccscccscsccscsscccscssscssscccccscccscccsscccccsccccsscccccssccccsscccscssscccccccsscsssccsssccssccsccccsccccsccsccscscscscccsccsssssccscsccsccsssscsccccsccccccccssscccssscccccccssccccscsssccccsscccscscssccccsscccssccccscscscccccccccccccscssscsssscccccssssscssccccccccscscscccccccccccccccccccccccccccccccccccccccccscscscsccccccccccccscccccscccccscscsccccccscccscccccscccccssssssssccscscccccccsccscccccccssccccccsscscccccscscscccscccccccss" /></g></g></svg>
